<svg xmlns="http://www.w3.org/2000/svg" viewBox="0 0 283.5 283.5"><path fill="none" d="M0 0h283.5v283.5H0z"/><path fill="#737f85" d="M201.4 72.1l-119.9.2c-10.7 0-19.3 8.7-19.3 19.4l8.2 153c0 9.6 7.8 17.4 17.5 17.4l107.9-.2c9.6 0 17.4-7.8 17.4-17.5l7.7-153c-.1-10.7-8.7-19.3-19.5-19.3zm-92.9 167.6c0 6.1-4.9 11-11 11.1-6.1 0-11.1-4.9-11.1-11L80.1 97.1c0-6.7 5.5-12.3 12.3-12.3 6.8 0 12.3 5.5 12.3 12.2l3.8 142.7zm44.3-.1c0 6.1-4.9 11-11 11.1-6.1 0-11-4.9-11.1-11l-1.5-142.6c0-6.8 5.5-12.3 12.2-12.3 6.8 0 12.3 5.5 12.3 12.2l-.9 142.6zm44.3 0c0 6.1-4.9 11-11 11s-11-4.9-11.1-11L178.5 97c0-6.8 5.5-12.3 12.3-12.3 6.8 0 12.3 5.5 12.3 12.2l-6 142.7z"/><path fill="#007cc1" d="M209.9 40h-28.1c-.3-10.4-8.9-18.7-19.4-18.7l-41.9.1c-10.5 0-19 8.4-19.3 18.8H73c-6 0-10.9 4.9-10.9 10.9C62.2 57.2 67 62 73 62l47.5-.1 41.9-.1 47.5-.1c6 0 10.9-4.9 10.9-10.9 0-5.9-4.9-10.8-10.9-10.8zm-96.6-.3c0-6.5 5.2-11.7 11.7-11.8h32.9c6.5 0 11.7 5.2 11.7 11.7l-56.3.1z"/></svg>